<svg xmlns="http://www.w3.org/2000/svg" viewBox="0 0 512 512" width="50" height="50">
	<style>
		tspan { white-space:pre }
		.shp0 { fill: #42a5f5 } 
		.shp1 { fill: #2196f3 } 
		.shp2 { fill: #e8916f } 
		.shp3 { fill: #d98868 } 
		.shp4 { fill: #ebad88 } 
		.shp5 { fill: #b05328 } 
		.shp6 { fill: #d66d3c } 
		.shp7 { fill: #c75d2d } 
		.shp8 { fill: #f1f1f1 } 
		.shp9 { fill: #de5b6d } 
	</style>
	<g id="Layer">
		<g id="Layer">
			<path id="Layer" class="shp0" d="M351.04 416.56L160.75 416.56C158.54 416.56 156.75 414.77 156.75 412.56L156.75 367.41C156.75 334.44 183.47 307.72 216.43 307.72L295.35 307.72C328.31 307.72 355.03 334.44 355.03 367.41L355.03 412.56C355.04 414.77 353.24 416.56 351.04 416.56L351.04 416.56Z" />
			<path id="Layer" class="shp1" d="M295.35 307.72L265.35 307.72C298.31 307.72 325.04 334.44 325.04 367.41L325.04 416.56L351.04 416.56C353.25 416.56 355.04 414.77 355.04 412.56L355.04 367.41C355.04 334.44 328.31 307.72 295.35 307.72Z" />
			<path id="Layer" class="shp2" d="M236.06 266.65L275.72 266.65L275.72 331.13L236.06 331.13L236.06 266.65Z" />
			<g id="Layer">
				<path id="Layer" class="shp2" d="M199.35 203.78C199.35 216.91 191.3 227.55 181.37 227.55C171.44 227.55 165.67 215.33 165.67 202.2C165.67 189.07 171.44 180 181.37 180C191.3 180 199.35 190.65 199.35 203.78Z" />
				<path id="Layer" class="shp3" d="M312.43 203.78C312.43 216.91 320.48 227.55 330.41 227.55C340.34 227.55 346.11 215.33 346.11 202.2C346.11 189.07 340.34 180 330.41 180C320.48 180 312.43 190.65 312.43 203.78Z" />
			</g>
			<path id="Layer" class="shp4" d="M190.06 211.54L190.06 162.64C190.06 128.35 217.85 100.55 252.15 100.55L259.64 100.55C293.93 100.55 321.73 128.35 321.73 162.64L321.73 211.54C321.73 247.88 292.27 277.33 255.93 277.33L255.85 277.33C219.51 277.33 190.06 247.88 190.06 211.54L190.06 211.54Z" />
			<path id="Layer" class="shp2" d="M259.64 100.55L252.15 100.55C248.3 100.55 244.54 100.92 240.89 101.59C269.81 106.89 291.73 132.2 291.73 162.64L291.73 211.54C291.73 242.73 270.02 268.83 240.89 275.6C245.7 276.72 250.7 277.33 255.85 277.33L255.93 277.33C292.27 277.33 321.73 247.88 321.73 211.54L321.73 162.64C321.73 128.35 293.93 100.55 259.64 100.55L259.64 100.55Z" />
			<g id="Layer">
				<path id="Layer" class="shp5" d="M228.13 197.22C223.99 197.22 220.63 200.57 220.63 204.72L220.63 208.68C220.63 212.83 223.99 216.18 228.13 216.18C232.27 216.18 235.63 212.83 235.63 208.68L235.63 204.72C235.63 200.57 232.27 197.22 228.13 197.22Z" />
				<path id="Layer" class="shp5" d="M283.65 197.22C279.51 197.22 276.15 200.57 276.15 204.72L276.15 208.68C276.15 212.83 279.51 216.18 283.65 216.18C287.79 216.18 291.15 212.83 291.15 208.68L291.15 204.72C291.15 200.57 287.79 197.22 283.65 197.22Z" />
			</g>
			<path id="Layer" class="shp6" d="M283.65 141.62C283.65 141.62 277.33 176.61 210.45 167.63C199.36 166.14 190.06 188.87 190.06 188.87C190.06 188.87 182.17 184.8 178.8 163.43C174.19 134.16 184.56 88.06 246.75 88.06C284.24 88.06 295.6 103.82 295.6 103.82C295.6 103.82 333.83 102.46 333.83 145C333.83 171.28 321.9 189.84 321.9 189.84C321.9 189.84 318.49 180.41 303.44 168.71C295.2 162.31 282.41 154.9 283.65 141.62Z" />
			<g id="Layer">
				<path id="Layer" class="shp7" d="M295.6 103.82C295.6 103.82 284.24 88.06 246.75 88.06C241.45 88.06 236.54 88.4 231.97 89.03C245.06 90.8 253.59 94.66 258.78 98C263.91 101.3 269.59 103.6 275.51 105.04C286.84 107.79 303.84 116.64 303.84 145C303.84 153.17 302.68 160.59 301.1 166.94C301.91 167.54 302.69 168.13 303.44 168.71C318.5 180.41 321.91 189.85 321.91 189.85C321.91 189.85 333.84 171.29 333.84 145C333.83 102.46 295.6 103.82 295.6 103.82L295.6 103.82Z" />
			</g>
			<path id="Layer" class="shp8" d="M236.06 292.19C236.06 292.19 234.16 318.48 255.89 331.13C255.89 331.13 243.54 344.93 231.04 340.55C221.14 337.08 215.54 318.61 213.64 311.09C213.16 309.19 213.92 307.2 215.54 306.1L236.06 292.19Z" />
			<path id="Layer" class="shp8" d="M275.72 292.19C275.72 292.19 277.62 318.48 255.89 331.13C255.89 331.13 268.25 344.93 280.74 340.55C290.64 337.08 296.25 318.61 298.15 311.09C298.63 309.19 297.86 307.2 296.24 306.1L275.72 292.19Z" />
			<path id="Layer" fill-rule="evenodd" class="shp9" d="M504.5 248.5C508.64 248.5 512 251.86 512 256C512 260.14 508.64 263.5 504.5 263.5L478.25 263.5C476.39 320.12 453.47 373.08 413.22 413.33C373 453.56 320.08 476.47 263.5 478.36L263.5 504.5C263.5 508.64 260.14 512 256 512C251.86 512 248.5 508.64 248.5 504.5L248.5 478.37C191.84 476.53 138.84 453.61 98.56 413.33C58.31 373.08 35.39 320.12 33.53 263.5L7.5 263.5C3.36 263.5 0 260.14 0 256C0 251.86 3.36 248.5 7.5 248.5L33.53 248.5C35.39 191.88 58.31 138.92 98.56 98.67C138.84 58.39 191.84 35.47 248.5 33.64L248.5 7.5C248.5 3.36 251.86 0 256 0C260.14 0 263.5 3.36 263.5 7.5L263.5 33.64C320.08 35.53 373 58.44 413.22 98.67C453.47 138.92 476.39 191.88 478.25 248.5L504.5 248.5ZM463.24 263.5L454.5 263.5C450.36 263.5 447 260.14 447 256C447 251.86 450.36 248.5 454.5 248.5L463.24 248.5C459.37 140.07 371.91 52.58 263.5 48.65L263.5 57.5C263.5 61.64 260.14 65 256 65C251.86 65 248.5 61.64 248.5 57.5L248.5 48.65C139.99 52.47 52.42 140 48.54 248.5L57.5 248.5C61.64 248.5 65 251.86 65 256C65 260.14 61.64 263.5 57.5 263.5L48.54 263.5C52.42 372 139.99 459.53 248.5 463.35L248.5 454.5C248.5 450.36 251.86 447 256 447C260.14 447 263.5 450.36 263.5 454.5L263.5 463.35C371.91 459.42 459.37 371.93 463.24 263.5Z" />
		</g>
	</g>
</svg>