<svg xmlns="http://www.w3.org/2000/svg" viewBox="0 0 516 516" width="50" height="50">
	<style>
		tspan { white-space:pre }
		.shp0 { fill: #414b82 } 
		.shp1 { fill: #5f6e9b } 
		.shp2 { fill: #ffb69e } 
		.shp3 { fill: #55696e } 
		.shp4 { fill: #a5c8cd } 
		.shp5 { fill: #c8e6eb } 
		.shp6 { fill: #64afff } 
		.shp7 { fill: #232629 } 
		.shp8 { fill: #4699f2 } 
		.shp9 { fill: #748488 } 
		.shp10 { fill: #de5b6d } 
		.shp11 { fill: #ba6746 } 
		.shp12 { fill: #d97885 } 
		.shp13 { fill: #ebf5f7 } 
		.shp14 { fill: #373c41 } 
	</style>
	<g id="Layer">
		<g id="Layer">
			<g id="XMLID_4856_">
				<path id="Layer" class="shp0" d="M194.91 294.93L194.91 491.58C194.91 505.01 205.8 515.9 219.23 515.9C232.66 515.9 243.66 505.01 243.66 491.58L243.66 294.93L219.28 287.36L194.91 294.93Z" />
			</g>
			<g id="XMLID_4852_">
				<path id="Layer" class="shp1" d="M159.31 515.9C145.91 515.9 135.03 505.06 134.99 491.65L134.56 294.93C134.52 281.5 145.22 272.96 158.65 272.92L158.72 272.92C172.12 272.92 183.59 281.52 183.63 294.93L183.63 491.5C183.67 504.94 172.81 515.86 159.38 515.9C159.36 515.9 159.33 515.9 159.31 515.9Z" />
			</g>
			<g id="Layer">
				<path id="Layer" class="shp2" d="M279.98 273.95L213.12 232.23C209.82 230.17 207.17 227.23 205.46 223.74L170.56 152.5C165.51 142.19 169.77 129.73 180.08 124.68C190.39 119.63 202.85 123.9 207.9 134.21L240.18 200.11L301.99 238.68C311.73 244.76 314.7 257.58 308.63 267.32C302.59 276.99 289.79 280.07 279.98 273.95L279.98 273.95Z" />
			</g>
			<g id="XMLID_6805_">
				<path id="Layer" class="shp3" d="M465.85 513.89C465.82 513.89 465.8 513.89 465.77 513.89C452.34 513.85 441.49 502.93 441.53 489.49L441.53 292.92C441.57 279.51 453.04 270.91 466.44 270.91L466.51 270.91C479.94 270.95 490.57 279.49 490.53 292.92L490.53 489.64C490.49 503.05 479.24 513.89 465.85 513.89L465.85 513.89Z" />
			</g>
			<g id="Layer">
				<path id="Layer" class="shp4" d="M359.08 92.19L323.55 92.19L323.55 65.66C323.55 62.34 326.24 59.66 329.55 59.66C332.87 59.66 335.55 62.34 335.55 65.66L335.55 80.19L347.08 80.19L347.08 65.66C347.08 62.34 349.77 59.66 353.08 59.66C356.4 59.66 359.08 62.34 359.08 65.66L359.08 92.19Z" />
			</g>
			<g id="Layer">
				<path id="Layer" class="shp4" d="M341.32 243.61C336.9 243.61 333.32 240.03 333.32 235.61L333.32 112.2C333.32 107.78 336.9 104.2 341.32 104.2C345.74 104.2 349.32 107.78 349.32 112.2L349.32 235.61C349.32 240.03 345.74 243.61 341.32 243.61Z" />
			</g>
			<path id="Layer" class="shp5" d="M319.12 86.19L319.12 116C319.12 128.27 329.06 138.21 341.32 138.21C353.58 138.21 363.52 128.27 363.52 116L363.52 86.19L319.12 86.19Z" />
			<path id="Layer" class="shp6" d="M215.36 106.91L163.1 106.91C147.34 106.91 134.56 119.69 134.56 135.45L134.56 294.93L243.66 294.93L243.9 135.45C243.9 119.69 231.12 106.91 215.36 106.91L215.36 106.91Z" />
			<path id="Layer" class="shp2" d="M198.5 92.81C173.39 92.81 153.1 72.52 153.1 47.41C153.1 22.3 173.39 2.01 198.5 2.01C223.6 2.01 243.9 22.3 243.9 47.41C243.9 72.52 223.6 92.81 198.5 92.81Z" />
			<g id="Layer">
				<path id="Layer" fill-rule="evenodd" class="shp7" d="M83.24 338.76C74.01 338.76 66.49 331.25 66.49 322.01L66.49 288.09C66.49 278.85 74.01 271.33 83.24 271.33L124.78 271.33C134.02 271.33 141.53 278.85 141.53 288.09L141.53 322.01C141.53 331.25 134.02 338.76 124.78 338.76L83.24 338.76ZM83.49 321.76L124.53 321.76L124.53 288.33L83.49 288.33L83.49 321.76Z" />
			</g>
			<g id="XMLID_4848_">
				<path id="Layer" class="shp2" d="M148.79 169.51L125.66 164.99L108.5 185.29C106.54 187.61 105.11 190.34 104.31 193.27L83.81 269.01C80.8 280.09 87.36 291.51 98.44 294.51C109.57 297.52 120.95 290.9 123.94 279.88L143.24 208.6L158.2 190.9L148.79 169.51Z" />
			</g>
			<g id="XMLID_267_">
				<path id="Layer" class="shp8" d="M190.42 120.57C181.65 113.16 168.54 114.26 161.13 123.03L125.66 164.99L158.2 190.9L192.88 149.87C200.29 141.1 199.19 127.98 190.42 120.57L190.42 120.57Z" />
			</g>
			<g id="XMLID_6813_">
				<path id="Layer" class="shp9" d="M381.5 292.92L381.5 489.57C381.5 503 392.5 513.89 405.93 513.89L405.93 513.89C419.36 513.89 430.25 503 430.25 489.57L430.26 292.92L405.88 287.36L381.5 292.92Z" />
			</g>
			<path id="Layer" class="shp10" d="M462.06 104.9L409.8 104.9C394.03 104.9 381.26 117.67 381.26 133.44L381.5 292.92L490.53 292.92L490.53 133.44C490.53 117.67 477.82 104.9 462.06 104.9Z" />
			<path id="Layer" class="shp11" d="M426.66 90.8C401.55 90.8 381.26 70.51 381.26 45.4C381.26 20.29 401.55 0 426.66 0C451.77 0 472.06 20.29 472.06 45.4C472.06 70.51 451.77 90.8 426.66 90.8Z" />
			<g id="XMLID_4857_">
				<path id="Layer" class="shp11" d="M435.89 167.6L410.9 171.74L404 186.81L348.07 167.61C337.21 163.88 325.38 169.66 321.66 180.52C317.93 191.38 323.71 203.21 334.57 206.93L408.31 232.25C418.42 235.72 429.51 230.96 433.96 221.24L449.42 187.49L435.89 167.6Z" />
			</g>
			<g id="XMLID_266_">
				<path id="Layer" class="shp12" d="M457.66 119.56C447.22 114.78 434.88 119.37 430.1 129.81L410.9 171.74L449.42 187.49L467.91 147.12C472.69 136.68 468.1 124.35 457.66 119.56L457.66 119.56Z" />
			</g>
			<g id="Layer">
				<path id="Layer" class="shp13" d="M363.52 92.19L319.12 92.19C315.8 92.19 313.12 89.5 313.12 86.19C313.12 82.88 315.8 80.19 319.12 80.19L363.52 80.19C366.83 80.19 369.52 82.88 369.52 86.19C369.52 89.5 366.83 92.19 363.52 92.19L363.52 92.19Z" />
			</g>
			<path id="Layer" class="shp14" d="M175.11 307.04L32.91 307.04C28.75 307.04 25.37 310.41 25.37 314.58L25.37 417.7C25.37 421.87 28.75 425.25 32.91 425.25L175.11 425.25C179.28 425.25 182.65 421.87 182.65 417.7L182.65 314.58C182.65 310.41 179.28 307.04 175.11 307.04Z" />
			<g id="Layer">
				<path id="Layer" class="shp10" d="M121.19 365.03L114.87 365.03C113.96 365.03 113.31 364.17 113.55 363.3L121.34 334.93C121.58 334.06 120.92 333.2 120.02 333.2L91.29 333.2C90.58 333.2 89.99 333.74 89.92 334.44L86.24 372.96C86.17 373.77 86.8 374.46 87.61 374.46L96.37 374.46C97.21 374.46 97.86 375.22 97.72 376.06L93.58 400.81C93.34 402.22 95.16 403 96.02 401.86L122.28 367.23C122.96 366.33 122.32 365.03 121.19 365.03L121.19 365.03Z" />
			</g>
		</g>
	</g>
</svg>